<?xml version="1.0" encoding="UTF-8"?>
<svg xmlns="http://www.w3.org/2000/svg" xmlns:xlink="http://www.w3.org/1999/xlink" viewBox="0 0 24 24" width="24px" height="24px">
<g id="surface18192993">
<path style=" stroke:none;fill-rule:nonzero;fill:rgb(0%,0%,0%);fill-opacity:1;" d="M 5.375 1.25 C 4.910156 1.25 4.464844 1.433594 4.136719 1.765625 C 3.808594 2.089844 3.625 2.535156 3.625 3 L 3.625 20.800781 C 3.625 21.265625 3.808594 21.710938 4.136719 22.035156 C 4.464844 22.363281 4.910156 22.550781 5.375 22.550781 L 15.375 22.550781 C 15.839844 22.550781 16.285156 22.363281 16.609375 22.035156 C 16.941406 21.710938 17.125 21.265625 17.125 20.800781 L 17.125 17 C 17.125 16.585938 16.789062 16.25 16.375 16.25 C 15.960938 16.25 15.625 16.585938 15.625 17 L 15.625 20.800781 C 15.625 20.867188 15.601562 20.929688 15.550781 20.976562 C 15.503906 21.023438 15.441406 21.050781 15.375 21.050781 L 5.375 21.050781 C 5.308594 21.050781 5.246094 21.023438 5.195312 20.976562 C 5.148438 20.929688 5.125 20.867188 5.125 20.800781 L 5.125 3 C 5.125 2.933594 5.148438 2.871094 5.195312 2.824219 C 5.246094 2.773438 5.308594 2.75 5.375 2.75 L 15.375 2.75 C 15.441406 2.75 15.503906 2.773438 15.550781 2.824219 C 15.601562 2.871094 15.625 2.933594 15.625 3 L 15.625 7 C 15.625 7.414062 15.960938 7.75 16.375 7.75 C 16.789062 7.75 17.125 7.414062 17.125 7 L 17.125 3 C 17.125 2.535156 16.941406 2.089844 16.609375 1.765625 C 16.285156 1.433594 15.839844 1.25 15.375 1.25 Z M 14.625 9.25 C 14.433594 9.25 14.242188 9.324219 14.09375 9.472656 L 12.09375 11.472656 C 11.800781 11.765625 11.800781 12.234375 12.09375 12.53125 L 14.09375 14.53125 C 14.386719 14.824219 14.863281 14.824219 15.152344 14.53125 C 15.449219 14.238281 15.449219 13.761719 15.152344 13.472656 L 14.433594 12.75 L 19.625 12.75 C 20.039062 12.75 20.375 12.414062 20.375 12 C 20.375 11.585938 20.039062 11.25 19.625 11.25 L 14.433594 11.25 L 15.152344 10.527344 C 15.449219 10.238281 15.449219 9.761719 15.152344 9.46875 C 15.007812 9.324219 14.816406 9.25 14.625 9.25 Z M 14.625 9.25 "/>
</g>
</svg>
